%TF.GenerationSoftware,Altium Limited,Altium Designer,24.5.2 (23)*%
G04 Layer_Color=65535*
%FSLAX45Y45*%
%MOMM*%
%TF.SameCoordinates,5B064655-CD81-4365-9437-41699C8337F6*%
%TF.FilePolarity,Positive*%
%TF.FileFunction,Legend,Top*%
%TF.Part,Single*%
G01*
G75*
%TA.AperFunction,NonConductor*%
%ADD42C,0.20000*%
%ADD43C,0.12700*%
D42*
X8665000Y6632500D02*
G03*
X8665000Y6632500I-10000J0D01*
G01*
X10989000Y6337300D02*
G03*
X10989000Y6337300I-10000J0D01*
G01*
X11566000Y7370000D02*
G03*
X11566000Y7370000I-10000J0D01*
G01*
X9335000Y7600000D02*
G03*
X9335000Y7600000I-10000J0D01*
G01*
X11660000Y5997500D02*
G03*
X11660000Y5997500I-10000J0D01*
G01*
X9010000Y8525000D02*
G03*
X9010000Y8525000I-10000J0D01*
G01*
X9197500Y6025000D02*
G03*
X9197500Y6025000I-10000J0D01*
G01*
X10632500Y7100000D02*
G03*
X10632500Y7100000I-10000J0D01*
G01*
D43*
X8757000Y6970000D02*
X8773000D01*
X8757000Y6720000D02*
X8773000D01*
X11086000Y5714000D02*
Y6086000D01*
X10414000Y5714000D02*
Y6086000D01*
X11060000D02*
X11086000D01*
X10414000D02*
X10439000D01*
X10414000Y5714000D02*
X10563000D01*
X10926000D02*
X11086000D01*
X11681000Y7125000D02*
X11866000D01*
X11681000Y7875000D02*
X11866000D01*
X11681000Y7125000D02*
Y7148000D01*
Y7852000D02*
Y7875000D01*
X10095500Y6975000D02*
X10125000D01*
X10095500Y7675000D02*
X10125000D01*
X9425000Y6975000D02*
X9454500D01*
X9425000Y7675000D02*
X9454500D01*
X10125000Y6975000D02*
Y7004500D01*
Y7645500D02*
Y7675000D01*
X9425000Y6975000D02*
Y7004500D01*
Y7645500D02*
Y7675000D01*
X9045500Y8425000D02*
X9075000D01*
Y8395500D02*
Y8425000D01*
X8675000Y8395500D02*
Y8425000D01*
X8704500D01*
X8675000Y8025000D02*
X8704500D01*
X8675000D02*
Y8054500D01*
X9075000Y8025000D02*
Y8054500D01*
X9045500Y8025000D02*
X9075000D01*
X10037500Y5734500D02*
Y5862500D01*
X8962500Y5734500D02*
Y5862500D01*
X9874500D02*
X10037500D01*
X8962500D02*
X9125500D01*
X9084500Y5457500D02*
X9915500D01*
%TF.MD5,0a03b2f69f8bd667fb22de4ccd8984a1*%
M02*
