%TF.GenerationSoftware,Altium Limited,Altium Designer,24.5.2 (23)*%
G04 Layer_Physical_Order=1*
G04 Layer_Color=255*
%FSLAX45Y45*%
%MOMM*%
%TF.SameCoordinates,5B064655-CD81-4365-9437-41699C8337F6*%
%TF.FilePolarity,Positive*%
%TF.FileFunction,Copper,L1,Top,Signal*%
%TF.Part,Single*%
G01*
G75*
%TA.AperFunction,SMDPad,CuDef*%
G04:AMPARAMS|DCode=10|XSize=0.59mm|YSize=0.6mm|CornerRadius=0.15635mm|HoleSize=0mm|Usage=FLASHONLY|Rotation=180.000|XOffset=0mm|YOffset=0mm|HoleType=Round|Shape=RoundedRectangle|*
%AMROUNDEDRECTD10*
21,1,0.59000,0.28730,0,0,180.0*
21,1,0.27730,0.60000,0,0,180.0*
1,1,0.31270,-0.13865,0.14365*
1,1,0.31270,0.13865,0.14365*
1,1,0.31270,0.13865,-0.14365*
1,1,0.31270,-0.13865,-0.14365*
%
%ADD10ROUNDEDRECTD10*%
G04:AMPARAMS|DCode=11|XSize=0.59mm|YSize=0.6mm|CornerRadius=0.15635mm|HoleSize=0mm|Usage=FLASHONLY|Rotation=270.000|XOffset=0mm|YOffset=0mm|HoleType=Round|Shape=RoundedRectangle|*
%AMROUNDEDRECTD11*
21,1,0.59000,0.28730,0,0,270.0*
21,1,0.27730,0.60000,0,0,270.0*
1,1,0.31270,-0.14365,-0.13865*
1,1,0.31270,-0.14365,0.13865*
1,1,0.31270,0.14365,0.13865*
1,1,0.31270,0.14365,-0.13865*
%
%ADD11ROUNDEDRECTD11*%
%ADD12R,0.92000X0.97000*%
%ADD13R,0.50000X0.47500*%
%ADD14R,0.47500X0.50000*%
%ADD15R,1.40000X1.15000*%
G04:AMPARAMS|DCode=16|XSize=0.93mm|YSize=1.31mm|CornerRadius=0.06975mm|HoleSize=0mm|Usage=FLASHONLY|Rotation=180.000|XOffset=0mm|YOffset=0mm|HoleType=Round|Shape=RoundedRectangle|*
%AMROUNDEDRECTD16*
21,1,0.93000,1.17050,0,0,180.0*
21,1,0.79050,1.31000,0,0,180.0*
1,1,0.13950,-0.39525,0.58525*
1,1,0.13950,0.39525,0.58525*
1,1,0.13950,0.39525,-0.58525*
1,1,0.13950,-0.39525,-0.58525*
%
%ADD16ROUNDEDRECTD16*%
G04:AMPARAMS|DCode=17|XSize=3.24mm|YSize=1.31mm|CornerRadius=0.09825mm|HoleSize=0mm|Usage=FLASHONLY|Rotation=180.000|XOffset=0mm|YOffset=0mm|HoleType=Round|Shape=RoundedRectangle|*
%AMROUNDEDRECTD17*
21,1,3.24000,1.11350,0,0,180.0*
21,1,3.04350,1.31000,0,0,180.0*
1,1,0.19650,-1.52175,0.55675*
1,1,0.19650,1.52175,0.55675*
1,1,0.19650,1.52175,-0.55675*
1,1,0.19650,-1.52175,-0.55675*
%
%ADD17ROUNDEDRECTD17*%
%ADD18R,1.00000X0.97000*%
%ADD19R,0.97000X0.92000*%
%ADD20R,1.16000X1.47000*%
%TA.AperFunction,ConnectorPad*%
%ADD21R,1.38000X0.45000*%
%ADD22R,1.55000X1.42500*%
%ADD23R,1.90000X1.80000*%
%ADD24R,1.90000X1.00000*%
%ADD25R,1.30000X1.65000*%
%TA.AperFunction,SMDPad,CuDef*%
G04:AMPARAMS|DCode=26|XSize=0.87mm|YSize=0.27mm|CornerRadius=0.03375mm|HoleSize=0mm|Usage=FLASHONLY|Rotation=90.000|XOffset=0mm|YOffset=0mm|HoleType=Round|Shape=RoundedRectangle|*
%AMROUNDEDRECTD26*
21,1,0.87000,0.20250,0,0,90.0*
21,1,0.80250,0.27000,0,0,90.0*
1,1,0.06750,0.10125,0.40125*
1,1,0.06750,0.10125,-0.40125*
1,1,0.06750,-0.10125,-0.40125*
1,1,0.06750,-0.10125,0.40125*
%
%ADD26ROUNDEDRECTD26*%
G04:AMPARAMS|DCode=27|XSize=0.87mm|YSize=0.27mm|CornerRadius=0.03375mm|HoleSize=0mm|Usage=FLASHONLY|Rotation=0.000|XOffset=0mm|YOffset=0mm|HoleType=Round|Shape=RoundedRectangle|*
%AMROUNDEDRECTD27*
21,1,0.87000,0.20250,0,0,0.0*
21,1,0.80250,0.27000,0,0,0.0*
1,1,0.06750,0.40125,-0.10125*
1,1,0.06750,-0.40125,-0.10125*
1,1,0.06750,-0.40125,0.10125*
1,1,0.06750,0.40125,0.10125*
%
%ADD27ROUNDEDRECTD27*%
%ADD28R,5.60000X5.60000*%
%ADD29R,0.80000X0.80000*%
%ADD30R,1.47000X1.16000*%
%ADD31R,0.28000X0.79000*%
%ADD32R,0.79000X0.28000*%
%ADD33R,0.60000X1.70000*%
%ADD34R,1.00000X2.70000*%
%ADD35R,0.80000X0.80000*%
%TA.AperFunction,BGAPad,CuDef*%
%ADD36C,0.78000*%
%TA.AperFunction,Conductor*%
%ADD37C,0.25000*%
%ADD38C,0.26017*%
%TA.AperFunction,ViaPad*%
%ADD39C,1.52400*%
%TA.AperFunction,ComponentPad*%
%ADD40C,1.00000*%
D10*
X10000000Y6850000D02*
D03*
X10081000D02*
D03*
X8765500Y7850000D02*
D03*
X8684500D02*
D03*
X10319000Y8500000D02*
D03*
X10400000D02*
D03*
D11*
X10250000Y7584500D02*
D03*
Y7665500D02*
D03*
X9250000Y7519000D02*
D03*
Y7600000D02*
D03*
X9125000Y7519000D02*
D03*
Y7600000D02*
D03*
X9150000Y7281000D02*
D03*
Y7200000D02*
D03*
X8525000Y8425000D02*
D03*
Y8344000D02*
D03*
Y8206000D02*
D03*
Y8125000D02*
D03*
X9250000Y8044000D02*
D03*
Y8125000D02*
D03*
D12*
X9650000Y7850000D02*
D03*
X9495000D02*
D03*
X9005000Y7125000D02*
D03*
X8850000D02*
D03*
X8650000D02*
D03*
X8495000D02*
D03*
X9852500Y6825000D02*
D03*
X9697500D02*
D03*
D13*
X9800000Y8025000D02*
D03*
Y7922600D02*
D03*
X11650000Y6201200D02*
D03*
Y6098800D02*
D03*
D14*
X8976200Y7300000D02*
D03*
X8873800D02*
D03*
X10525000Y8500000D02*
D03*
X10627400D02*
D03*
X9748800Y8175000D02*
D03*
X9851200D02*
D03*
X9997600D02*
D03*
X10100000D02*
D03*
X10300000Y6975000D02*
D03*
X10402400D02*
D03*
D15*
X8655000Y6765000D02*
D03*
X8875000D02*
D03*
Y6925000D02*
D03*
X8655000D02*
D03*
D16*
X10979000Y6234500D02*
D03*
X10750000D02*
D03*
X10521000D02*
D03*
D17*
X10750000Y5565500D02*
D03*
D18*
X11173500Y7175000D02*
D03*
X11026500D02*
D03*
D19*
X11000000Y6977500D02*
D03*
Y6822500D02*
D03*
X11200000Y6825000D02*
D03*
Y6980000D02*
D03*
D20*
X10712500Y6475000D02*
D03*
X10887500D02*
D03*
D21*
X11700000Y7370000D02*
D03*
Y7435000D02*
D03*
Y7500000D02*
D03*
Y7565000D02*
D03*
Y7630000D02*
D03*
D22*
X11708500Y7748750D02*
D03*
Y7251250D02*
D03*
D23*
X11966000Y7385000D02*
D03*
D24*
Y7655000D02*
D03*
D25*
Y7162500D02*
D03*
Y7837500D02*
D03*
D26*
X9500000Y6982000D02*
D03*
X9550000D02*
D03*
X9600000D02*
D03*
X9650000D02*
D03*
X9700000D02*
D03*
X9750000D02*
D03*
X9800000D02*
D03*
X9850000D02*
D03*
X9900000D02*
D03*
X9950000D02*
D03*
X10000000D02*
D03*
X10050000D02*
D03*
Y7668000D02*
D03*
X10000000D02*
D03*
X9950000D02*
D03*
X9900000D02*
D03*
X9850000D02*
D03*
X9800000D02*
D03*
X9750000D02*
D03*
X9700000D02*
D03*
X9650000D02*
D03*
X9600000D02*
D03*
X9550000D02*
D03*
X9500000D02*
D03*
D27*
X9432000Y7600000D02*
D03*
Y7550000D02*
D03*
Y7500000D02*
D03*
Y7450000D02*
D03*
Y7400000D02*
D03*
Y7350000D02*
D03*
Y7300000D02*
D03*
Y7250000D02*
D03*
Y7200000D02*
D03*
Y7150000D02*
D03*
Y7100000D02*
D03*
Y7050000D02*
D03*
X10118000D02*
D03*
Y7100000D02*
D03*
Y7150000D02*
D03*
Y7200000D02*
D03*
Y7250000D02*
D03*
Y7300000D02*
D03*
Y7350000D02*
D03*
Y7400000D02*
D03*
Y7450000D02*
D03*
Y7500000D02*
D03*
Y7550000D02*
D03*
Y7600000D02*
D03*
D28*
X9775000Y7325000D02*
D03*
D29*
X11650000Y5857500D02*
D03*
Y5692500D02*
D03*
D30*
X11325000Y5787500D02*
D03*
Y5962500D02*
D03*
D31*
X9000000Y8422000D02*
D03*
X8950000D02*
D03*
X8900000D02*
D03*
X8850000D02*
D03*
X8800000D02*
D03*
X8750000D02*
D03*
Y8028000D02*
D03*
X8800000D02*
D03*
X8850000D02*
D03*
X8900000D02*
D03*
X8950000D02*
D03*
X9000000D02*
D03*
D32*
X8678000Y8350000D02*
D03*
Y8300000D02*
D03*
Y8250000D02*
D03*
Y8200000D02*
D03*
Y8150000D02*
D03*
Y8100000D02*
D03*
X9072000D02*
D03*
Y8150000D02*
D03*
Y8200000D02*
D03*
Y8250000D02*
D03*
Y8300000D02*
D03*
Y8350000D02*
D03*
D33*
X9812500Y5887500D02*
D03*
X9687500D02*
D03*
X9562500D02*
D03*
X9437500D02*
D03*
X9312500D02*
D03*
X9187500D02*
D03*
D34*
X9997500Y5567500D02*
D03*
X9002500D02*
D03*
D35*
X10482500Y7100000D02*
D03*
X10317500D02*
D03*
D36*
X11100000Y8000000D02*
D03*
Y8127000D02*
D03*
X10973000D02*
D03*
Y8000000D02*
D03*
X10846000Y8127000D02*
D03*
Y8000000D02*
D03*
D37*
X9080936Y7534064D02*
X9109936D01*
X8765500Y7849500D02*
X9080936Y7534064D01*
X8765500Y7849500D02*
Y7850000D01*
X9109936Y7534064D02*
X9125000Y7519000D01*
X8600381Y8200000D02*
X8678000D01*
X8525000Y8206000D02*
X8594381D01*
X8600381Y8200000D01*
X8750435Y7865065D02*
X8765500Y7850000D01*
X8750435Y7865065D02*
Y7874565D01*
X8750000Y7875000D02*
X8750435Y7874565D01*
X9152619Y8150000D02*
X9177619Y8125000D01*
X9250000D01*
X9072000Y8150000D02*
X9152619D01*
X8591064Y8140065D02*
X8601000Y8150000D01*
X8678000D01*
X8540064Y8140065D02*
X8591064D01*
X8525000Y8125000D02*
X8540064Y8140065D01*
X8676500Y8301500D02*
X8678000Y8300000D01*
X8627038Y8301500D02*
X8676500D01*
X8590203Y8338335D02*
X8627038Y8301500D01*
X8590203Y8338335D02*
Y8375101D01*
X8555367Y8409936D02*
X8590203Y8375101D01*
X8540064Y8409936D02*
X8555367D01*
X8525000Y8425000D02*
X8540064Y8409936D01*
X9072000Y8350000D02*
X9770911D01*
X9907450Y8136538D02*
Y8213462D01*
X9888412Y8117500D02*
X9907450Y8136538D01*
X9770911Y8350000D02*
X9907450Y8213462D01*
X9805050Y8117500D02*
X9888412D01*
X9748800Y8173750D02*
X9805050Y8117500D01*
X9748800Y8173750D02*
Y8175000D01*
X9711588Y8232500D02*
X9794950D01*
X9683500Y8204412D02*
X9711588Y8232500D01*
X9683500Y7883500D02*
Y8204412D01*
X9794950Y8232500D02*
X9851200Y8176250D01*
X9650000Y7850000D02*
X9683500Y7883500D01*
X9495000Y7850000D02*
Y7852500D01*
X9461500Y7886000D02*
X9495000Y7852500D01*
X9459000Y7886000D02*
X9461500D01*
X9316064Y8028936D02*
X9459000Y7886000D01*
X9265064Y8028936D02*
X9316064D01*
X9250000Y8044000D02*
X9265064Y8028936D01*
X9851200Y8175000D02*
Y8176250D01*
X9742500Y7885388D02*
Y8168700D01*
Y7885388D02*
X9750000Y7877888D01*
X9742500Y8168700D02*
X9748800Y8175000D01*
X9750000Y7668000D02*
Y7877888D01*
X9800000Y7668000D02*
X9801000Y7669000D01*
Y7726000D01*
X9997600Y7922600D01*
Y8175000D01*
X10118000Y7100000D02*
X10317500D01*
X10402400Y6975000D02*
X10413650Y6986250D01*
Y7031150D02*
X10482500Y7100000D01*
X10413650Y6986250D02*
Y7031150D01*
X10712500Y6612500D02*
X10775000Y6675000D01*
X10712500Y6475000D02*
Y6612500D01*
X10775000Y6675000D02*
X11125000D01*
X11200000Y6750000D02*
Y6825000D01*
X11125000Y6675000D02*
X11200000Y6750000D01*
X10600000Y6475000D02*
X10712500D01*
X10712500Y6475000D01*
X10521000Y6234500D02*
Y6396000D01*
X10600000Y6475000D01*
X10000000D02*
Y6850000D01*
X10275000Y5389645D02*
X10289645Y5375000D01*
X10275000Y5389645D02*
Y6200000D01*
X10289645Y5375000D02*
X11200000D01*
X10000000Y6475000D02*
X10275000Y6200000D01*
X11200000Y5375000D02*
X11325000Y5500000D01*
Y5787500D01*
X11555000D01*
X11650000Y5692500D01*
X11455550Y6008000D02*
X11648750Y6201200D01*
X11370500Y6008000D02*
X11455550D01*
X11648750Y6201200D02*
X11650000D01*
X11325000Y5962500D02*
X11370500Y6008000D01*
X11119000Y6920538D02*
X11138038Y6901500D01*
X11119000Y6920538D02*
Y7039462D01*
X11138038Y6901500D02*
X11200000D01*
X11169731Y7069731D02*
X11200000Y7100000D01*
X11149269Y7069731D02*
X11169731D01*
X11119000Y7039462D02*
X11149269Y7069731D01*
X11173500Y7175000D02*
X11200000Y7148500D01*
Y7100000D02*
Y7148500D01*
X10975000Y7002500D02*
X11000000Y6977500D01*
X10975000Y7123500D02*
X10989000Y7137500D01*
X10975000Y7002500D02*
Y7123500D01*
X11025000Y7175000D02*
X11026500D01*
X10989000Y7139000D02*
X11025000Y7175000D01*
X10989000Y7137500D02*
Y7139000D01*
X9750000Y6125000D02*
X9812500Y6062500D01*
Y5887500D02*
Y6062500D01*
X9750000Y6125000D02*
Y6325000D01*
X9852500Y6427500D02*
Y6825000D01*
X9750000Y6325000D02*
X9852500Y6427500D01*
X9425000Y5900000D02*
X9437500Y5887500D01*
X9425000Y5900000D02*
Y6125000D01*
X9450000Y6150000D01*
Y6375000D01*
X9600000Y6525000D01*
Y6982000D01*
X9400000Y6225000D02*
Y6425000D01*
X9300000Y6125000D02*
X9400000Y6225000D01*
X9300000Y5900000D02*
Y6125000D01*
Y5900000D02*
X9312500Y5887500D01*
X9550000Y6575000D02*
Y6982000D01*
X9400000Y6425000D02*
X9550000Y6575000D01*
X8525000Y6775000D02*
X8645000D01*
X8655000Y6765000D01*
X8495000Y6805000D02*
Y7125000D01*
Y6805000D02*
X8525000Y6775000D01*
X8650000Y6930000D02*
Y7125000D01*
Y6930000D02*
X8655000Y6925000D01*
X8976200Y7348800D02*
X8990845Y7363445D01*
X9011555D01*
X9025000Y7350000D01*
X8976200Y7300000D02*
Y7348800D01*
X8525000Y7425000D02*
X9013640D01*
X9038639Y7400000D02*
X9432000D01*
X9013640Y7425000D02*
X9038639Y7400000D01*
X9025000Y7350000D02*
X9432000D01*
X8500000Y7130000D02*
Y7400000D01*
X8495000Y7125000D02*
X8500000Y7130000D01*
Y7400000D02*
X8525000Y7425000D01*
X9150000Y7200000D02*
X9432000D01*
X10050000Y6952000D02*
X10081000Y6921000D01*
X10050000Y6952000D02*
Y6982000D01*
X10081000Y6850000D02*
Y6921000D01*
X9949000Y6981000D02*
X9950000Y6982000D01*
X9949000Y6930015D02*
Y6981000D01*
X9924985Y6906000D02*
X9949000Y6930015D01*
X9875015Y6906000D02*
X9924985D01*
X9875015Y6906000D02*
X9875015Y6906000D01*
X9874985Y6906000D02*
X9875015D01*
X9874985Y6906000D02*
X9874985Y6906000D01*
X9825015Y6906000D02*
X9874985D01*
X9825015Y6906000D02*
X9825015Y6906000D01*
X9793038Y6906000D02*
X9825015D01*
X9793038Y6906000D02*
X9793038Y6906000D01*
X9697500Y6827500D02*
X9776000Y6906000D01*
X9697500Y6825000D02*
Y6827500D01*
X9776000Y6906000D02*
X9793038D01*
X10627400Y8500000D02*
X10727000D01*
X11100000Y8127000D01*
X10837929Y7864929D02*
X10973000Y8000000D01*
X10319290Y7864929D02*
X10837929D01*
X10149986Y7695625D02*
X10319290Y7864929D01*
X10050000Y7694625D02*
X10051000Y7695625D01*
X10050000Y7668000D02*
Y7694625D01*
X10051000Y7695625D02*
X10149986D01*
X10450000Y7650000D02*
X10619929Y7819929D01*
X10919929D01*
X10796000Y8050000D02*
X10846000Y8000000D01*
X10281015Y8050000D02*
X10796000D01*
X9951000Y7719985D02*
X10281015Y8050000D01*
X9950000Y7668000D02*
X9951000Y7669000D01*
Y7719985D01*
X10919929Y7819929D02*
X11100000Y8000000D01*
X10450000Y7550000D02*
Y7650000D01*
X10400000Y7500000D02*
X10450000Y7550000D01*
X10118000Y7500000D02*
X10400000D01*
X10149000Y7601000D02*
Y7631000D01*
X10148000Y7600000D02*
X10149000Y7601000D01*
X10183500Y7665500D02*
X10250000D01*
X10149000Y7631000D02*
X10183500Y7665500D01*
X10118000Y7600000D02*
X10148000D01*
X9125000Y7519000D02*
X9250000D01*
X9125000Y7600000D02*
X9250000D01*
X9432000D01*
D38*
X10149831Y7448169D02*
X10864582D01*
X10149832Y7401832D02*
X10883775D01*
X11690668Y7444332D02*
X11700000Y7435000D01*
X10926275Y7444332D02*
X11690668D01*
X10883775Y7401832D02*
X10926275Y7444332D01*
X10148000Y7400000D02*
X10149832Y7401832D01*
X11690669Y7490669D02*
X11700000Y7500000D01*
X10907082Y7490669D02*
X11690669D01*
X10118000Y7400000D02*
X10148000D01*
Y7450000D02*
X10149831Y7448169D01*
X10118000Y7450000D02*
X10148000D01*
X10864582Y7448169D02*
X10907082Y7490669D01*
D39*
X8400000Y5400000D02*
D03*
X11800000Y5300000D02*
D03*
X8400000Y8800000D02*
D03*
X11800000D02*
D03*
D40*
X11227000Y8063500D02*
D03*
X10719000Y7961500D02*
D03*
Y8165500D02*
D03*
%TF.MD5,3a5d67855df69b1d99af01cf700d308e*%
M02*
